<?xml version="1.0" encoding="UTF-8"?>
<svg width="313px" height="176px" viewBox="0 0 313 176" version="1.1" xmlns="http://www.w3.org/2000/svg" xmlns:xlink="http://www.w3.org/1999/xlink">
    <!-- Generator: Sketch 49.3 (51167) - http://www.bohemiancoding.com/sketch -->
    <title>Combined Shape</title>
    <desc>Created with Sketch.</desc>
    <defs></defs>
    <g id="Destop" stroke="none" stroke-width="1" fill="none" fill-rule="evenodd">
        <g id="Desktop-HD" transform="translate(-30.000000, -40.000000)" fill="#000000">
            <path d="M264.78173,41.3995926 C315.255012,38.9054557 340.491654,39.744821 340.491654,43.9176885 C340.491654,50.1951184 340.491405,46.1825087 340.491654,46.4140292 C340.534051,85.9226397 344.162478,192.820983 340.491654,211.172519 C339.867481,214.292945 311.276623,215.638525 310.65245,211.269928 C308.005281,192.742356 307.027496,177.334473 305.034892,162.591283 C304.152034,156.05905 293.175604,162.591283 293.175604,158.222687 C293.175604,147.494057 303.786546,157.712695 303.786546,150.733665 C303.786546,120.15349 300.041508,88.9492309 300.041508,80.2120383 C300.041508,75.9913677 298.778315,73.5497211 296.920642,72.723016 C294.932755,71.8383623 291.668009,72.723016 290.054738,72.723016 C287.974162,72.723016 286.933873,75.2193568 286.933873,80.2120383 C285.269412,166.335795 282.980777,210.021758 280.067969,211.269928 C276.039303,212.996257 269.785009,211.986811 268.83454,211.818967 C266.551261,212.390867 265.427487,212.30752 265.463219,211.568926 C262.972184,119.989146 261.726666,73.3667126 261.726666,71.7016257 C261.726666,69.2039953 256.744596,62.9599194 256.744596,72.3260333 C256.744596,78.5701092 257.574941,105.419636 259.235631,152.874612 C260.065976,188.257709 260.065976,206.989937 259.235631,209.071295 C257.990114,212.193333 259.235631,213.442148 256.744596,210.320111 C254.253561,207.198073 232.457005,75.4480712 230.588729,72.3260333 C228.720453,69.2039953 228.720453,69.8284029 227.474935,69.8284029 C226.229418,69.8284029 224.361142,68.5795877 222.492866,72.3260333 C220.624589,76.0724788 224.361142,204.700442 221.870107,210.320111 C219.379072,215.939779 209.414932,213.442148 207.546656,210.320111 C205.67838,207.198073 206.923897,83.5653699 206.923897,78.5701092 C206.923897,75.2399354 206.093552,72.5341691 204.432862,70.4528105 C200.69631,69.6202671 198.412861,70.0365388 197.582516,71.7016257 C196.752171,73.3667126 196.336998,75.864343 196.336998,79.1945168 C196.336998,164.530221 196.336998,208.238752 196.336998,210.320111 C196.336998,213.442148 188.241753,213.521788 186.995617,210.320111 C177.031477,184.719399 175.78596,181.597361 167.067338,152.874612 C165.913324,149.072815 180.145271,144.132906 180.145271,117.28338 C180.145271,90.4338534 176.408719,85.4385927 173.917684,78.5701092 C171.426649,71.7016257 158.348715,69.2039953 157.103198,71.7016257 C155.85768,74.1992561 157.103198,74.1992561 157.103198,79.1945168 C157.103198,102.296546 160.787166,191.851498 157.103198,210.320111 C156.480439,213.442148 147.139058,214.690964 146.516299,210.320111 C143.875129,191.782967 142.899559,176.367124 140.91147,161.616319 C140.030612,155.080711 129.079054,161.616319 129.079054,157.245465 C129.079054,146.511293 139.665953,156.73521 139.665953,149.752574 C139.665953,119.156602 135.929401,87.936223 135.929401,79.1945168 C135.929401,74.9716658 134.66907,72.5287578 132.815607,71.7016257 C130.832224,70.816515 127.574876,71.7016257 125.965261,71.7016257 C123.889398,71.7016257 122.851467,74.1992561 122.851467,79.1945168 C121.190777,165.362764 118.907328,209.071295 116.001121,210.320111 C111.64181,212.193333 111.64181,212.193333 107.282498,210.320111 C101.596199,207.876673 100.432152,96.0535217 100.432152,87.3118154 C100.432152,78.5701092 97.9411173,74.1992561 95.4500824,74.1992561 C92.9590474,74.1992561 92.9590474,72.3260333 91.0907712,80.4433319 C89.222495,88.5606306 87.3542187,95.4291141 84.240425,95.4291141 C82.1645626,95.4291141 80.9190451,89.8094458 80.5038726,78.5701092 C79.2583551,71.9097616 77.5976651,68.5795877 75.5218027,68.5795877 C73.4459402,68.5795877 71.9928365,71.9097616 71.1624915,78.5701092 C68.6714565,127.239238 67.425939,171.155905 67.425939,210.320111 C67.425939,217.813002 36.8501063,217.973168 33.796967,210.320111 C31.305932,204.076035 28.1921383,87.3118154 31.305932,45.4765069 C31.7135472,40.0000018 109.538252,38.6308755 264.780045,41.3691281 C264.780607,41.379281 264.781168,41.3894334 264.781729,41.3995854 Z" id="Combined-Shape"></path>
        </g>
    </g>
</svg>